<svg width="185" height="48" viewBox="0 0 185 48" fill="none" xmlns="http://www.w3.org/2000/svg">
<path d="M26.6455 29.8276H37.0974C36.5303 26.3366 34.9617 25.0466 30.9016 24.4027C27.9386 23.9336 26.4577 22.1785 26.459 19.1373C26.459 17.3168 26.459 15.4944 26.459 13.7335C37.6338 10.871 49.4103 19.6851 49.5025 30.7888C49.5487 36.2618 49.5102 41.7367 49.5102 47.4923C42.3109 47.4923 35.598 47.4981 28.8869 47.4846C28.1968 47.4846 27.5067 47.3655 26.6474 47.2866V29.8276H26.6455Z" fill="black"/>
<path d="M5.45571 37.2632V24.5121H0V13.8756H5.45571V4.875H17.7301V13.8756H24.4123V24.5121H17.7301V33.7184C17.7301 35.4235 18.822 36.7865 20.4579 36.7865C21.5499 36.7865 22.6398 36.4462 22.9128 36.1732L25.0947 45.4468C23.799 46.606 20.9347 47.6287 16.7766 47.6287C9.48116 47.6287 5.45763 44.1511 5.45763 37.2632H5.45571Z" fill="black"/>
<path d="M51.2012 46.8106V1.3291H63.4756V46.8106H51.2012Z" fill="black"/>
<path d="M85.7199 46.8106L80.0604 36.1741L77.6728 39.3787V46.8106H65.3984V1.3291H77.6728V25.6049L85.2412 13.8765H100.038L88.7188 28.8787L100.787 46.8126H85.718L85.7199 46.8106Z" fill="black"/>
<path d="M121.158 34.3316C123.749 36.377 129.341 38.4916 133.023 38.4916C135.545 38.4916 136.297 37.8092 136.297 36.923C136.297 35.831 134.797 35.4235 131.66 35.014C126.137 34.2643 117.613 33.2416 117.613 24.3083C117.613 18.3759 122.796 13.0566 132.342 13.0566C137.865 13.0566 142.775 14.7618 146.593 17.2839L142.092 25.2618C140.047 23.5567 136.227 21.8534 132.409 21.8534C130.637 21.8534 129.341 22.3302 129.341 23.2856C129.341 24.241 130.297 24.6486 133.569 25.1272C139.092 25.9462 148.025 27.1054 148.025 36.3097C148.025 42.8554 142.16 47.6287 132.409 47.6287C126.341 47.6287 119.795 45.5141 116.248 42.5824L121.158 34.3316Z" fill="black"/>
<path d="M172.725 46.8106V28.4673C172.725 25.057 170.884 23.8978 167.952 23.8978C165.021 23.8978 163.725 25.33 162.702 26.4892V46.8087H150.428V1.3291H162.702V17.627C164.611 15.4451 168.225 13.0575 174.021 13.0575C181.659 13.0575 185 17.5578 185 23.2865V46.8106H172.725Z" fill="black"/>
<path d="M108.304 21.3326C105.626 21.3326 103.306 19.9581 102.168 17.9512V46.9925H114.442V17.9512C113.302 19.9581 110.984 21.3326 108.306 21.3326H108.304Z" fill="black"/>
<path d="M108.696 4.65408V2.58175C109.179 2.37798 109.519 1.89931 109.519 1.34374C109.519 0.601704 108.917 0 108.175 0C107.433 0 106.831 0.601704 106.831 1.34374C106.831 1.90123 107.17 2.37798 107.654 2.58175V4.6733C104.157 5.00203 101.42 7.94519 101.42 11.5285C101.42 15.3329 104.503 18.4164 108.308 18.4164C112.112 18.4164 115.196 15.3329 115.196 11.5285C115.196 7.72411 112.322 4.85593 108.7 4.65408H108.696ZM108.175 0.713202C108.523 0.713202 108.806 0.995791 108.806 1.34374C108.806 1.69169 108.523 1.97428 108.175 1.97428C107.827 1.97428 107.545 1.69169 107.545 1.34374C107.545 0.995791 107.827 0.713202 108.175 0.713202ZM104.846 12.8126C103.936 12.8126 103.198 12.0745 103.198 11.1652C103.198 10.2559 103.936 9.51769 104.846 9.51769C105.755 9.51769 106.493 10.2559 106.493 11.1652C106.493 12.0745 105.755 12.8126 104.846 12.8126ZM112.045 12.8126C111.136 12.8126 110.397 12.0745 110.397 11.1652C110.397 10.2559 111.136 9.51769 112.045 9.51769C112.954 9.51769 113.692 10.2559 113.692 11.1652C113.692 12.0745 112.954 12.8126 112.045 12.8126Z" fill="url(#paint0_linear_602_2629)"/>
<defs>
<linearGradient id="paint0_linear_602_2629" x1="101.418" y1="9.20819" x2="115.192" y2="9.20819" gradientUnits="userSpaceOnUse">
<stop stop-color="#4456A6"/>
<stop offset="1" stop-color="#E05FA3"/>
</linearGradient>
</defs>
</svg>
